<?xml version="1.0" encoding="utf-8"?>
<!-- Generator: Adobe Illustrator 24.0.0, SVG Export Plug-In . SVG Version: 6.00 Build 0)  -->
<svg version="1.1" id="Layer_1" xmlns="http://www.w3.org/2000/svg" xmlns:xlink="http://www.w3.org/1999/xlink" x="0px" y="0px"
	 viewBox="0 0 800 800" style="enable-background:new 0 0 800 800;" xml:space="preserve">
<style type="text/css">
	.st0{fill:#443D3D;stroke:#000000;stroke-miterlimit:10;}
	.st1{clip-path:url(#SVGID_2_);}
	.st2{fill:none;stroke:#000000;stroke-width:33.3333;stroke-linejoin:round;stroke-miterlimit:133.3333;}
	.st3{fill:none;stroke:#000000;stroke-width:33.3333;stroke-linecap:round;stroke-linejoin:round;stroke-miterlimit:133.3333;}
</style>
<path class="st0" d="M562.5,300L562.5,300c33.5,0,60.5-27.2,60.5-60.5l0,0c0-33.5-27.2-60.5-60.5-60.5l0,0
	c-33.5,0-60.5,27.2-60.5,60.5l0,0C501.8,272.8,529,300,562.5,300z"/>
<g>
	<defs>
		<rect id="SVGID_1_" width="800" height="800"/>
	</defs>
	<clipPath id="SVGID_2_">
		<use xlink:href="#SVGID_1_"  style="overflow:visible;"/>
	</clipPath>
	<g class="st1">
		<path class="st2" d="M316.7,633.3c-20.1,0-82.9,0-129.4,0c-24.8,0-40.9-26.1-29.8-48.2l28.5-56.9c9.3-18.5,14.1-38.9,14.1-59.6
			c0-25.7,0-63.8,0-101.9c0-66.7,33.3-200,200-200s200,133.3,200,200c0,38.1,0,76.2,0,101.9c0,20.7,4.8,41.1,14.1,59.6l28.5,56.9
			c11.1,22.2-5,48.2-29.8,48.2H483.3 M316.7,633.3c0,66.7,33.3,100,83.3,100s83.3-33.3,83.3-100 M316.7,633.3
			c52.1,0,166.7,0,166.7,0"/>
		<path class="st3" d="M400,166.7V100"/>
	</g>
</g>
</svg>
